<?xml version="1.0" standalone="no"?>
<!DOCTYPE svg PUBLIC "-//W3C//DTD SVG 20010904//EN"
 "http://www.w3.org/TR/2001/REC-SVG-20010904/DTD/svg10.dtd">
<svg version="1.0" xmlns="http://www.w3.org/2000/svg"
 width="1989.000000pt" height="1989.000000pt" viewBox="0 0 1989.000000 1989.000000"
 preserveAspectRatio="xMidYMid meet">
<metadata>
Created by potrace 1.14, written by Peter Selinger 2001-2017
</metadata>
<g transform="translate(0.000000,1989.000000) scale(0.100000,-0.100000)"
fill="#000000" stroke="none">
<path d="M17165 16714 c-121 -59 -368 -175 -550 -259 -586 -269 -14086 -6791
-14283 -6900 -105 -58 -328 -169 -494 -246 -167 -78 -318 -152 -335 -165 -46
-35 -80 -99 -92 -174 -6 -36 -49 -255 -95 -486 -101 -503 -106 -537 -106 -769
0 -385 69 -786 221 -1300 45 -150 70 -209 216 -510 189 -392 188 -390 290
-527 322 -435 793 -849 1408 -1240 169 -108 841 -449 1044 -530 403 -162 953
-312 1426 -388 522 -84 967 -120 1506 -120 l326 0 1684 180 c931 99 1711 187
1744 196 208 57 787 263 1101 392 475 196 625 273 1193 611 256 153 525 308
598 344 1229 616 2238 1451 3113 2577 128 164 353 499 490 730 288 482 551
1059 703 1540 286 906 386 1642 404 2965 11 877 -49 1536 -193 2109 -78 310
-291 906 -447 1254 -120 266 -297 588 -397 720 -48 63 -124 102 -199 102 -51
0 -76 -10 -276 -106z m205 -509 c88 -142 258 -524 380 -850 252 -678 322 -982
391 -1690 51 -525 30 -1786 -41 -2403 -99 -865 -323 -1627 -705 -2392 -449
-902 -1062 -1687 -1880 -2408 -491 -433 -1078 -830 -1710 -1157 -157 -82 -210
-103 -415 -168 -971 -310 -1484 -441 -2070 -532 -268 -41 -338 -43 -1135 -33
l-760 9 -1114 190 c-1018 174 -1129 195 -1280 240 -178 54 -484 154 -591 193
-36 14 -110 41 -165 61 -482 177 -1145 480 -1575 718 -966 537 -1658 1066
-2124 1622 -198 238 -334 445 -457 698 -64 134 -164 408 -171 470 -3 26 3 30
189 117 105 49 276 136 380 193 103 57 198 109 210 115 21 11 25 4 106 -161
196 -398 411 -692 761 -1043 452 -453 954 -803 1655 -1154 672 -337 1458 -632
2196 -825 77 -20 181 -47 230 -60 537 -140 1351 -271 1985 -319 559 -43 1277
-55 1580 -28 824 75 1496 249 2170 561 1010 468 1977 1256 2667 2176 679 905
1074 1921 1188 3055 82 818 9 1669 -241 2810 -89 405 -235 960 -370 1412 -41
138 -73 256 -71 262 3 6 100 54 217 106 117 52 285 130 374 172 88 42 164 77
168 77 3 1 16 -15 28 -34z"/>
</g>
</svg>
